<svg xmlns:mydata="http://www.w3.org/2000/svg" mydata:contrastcolor="ffffff" mydata:template="Contrast" mydata:presentation="2.5" mydata:layouttype="undefined" mydata:specialfontid="undefined" mydata:id1="200" mydata:id2="183" mydata:companyname="Nexus" mydata:companytagline="finances" version="1.1" xmlns="http://www.w3.org/2000/svg" xmlns:xlink="http://www.w3.org/1999/xlink" viewBox="0 35 550 400"><g fill="none" fill-rule="none" stroke="none" stroke-width="1" stroke-linecap="butt" stroke-linejoin="miter" stroke-miterlimit="10" stroke-dasharray="" stroke-dashoffset="0" font-family="none" font-weight="none" font-size="none" text-anchor="none" style="mix-blend-mode: normal"><g data-paper-data="{&quot;selectedEffects&quot;:{&quot;container&quot;:&quot;&quot;,&quot;transformation&quot;:&quot;&quot;,&quot;pattern&quot;:&quot;&quot;},&quot;initialText&quot;:&quot;N&quot;,&quot;isIcon&quot;:&quot;true&quot;,&quot;iconType&quot;:&quot;initial&quot;,&quot;iconStyle&quot;:&quot;standalone&quot;,&quot;rawInitialId&quot;:713,&quot;disableIconEffects&quot;:&quot;true&quot;,&quot;monogramSpecial&quot;:&quot;multisegment-rectangle&quot;,&quot;bounds&quot;:{&quot;x&quot;:183.75938556730102,&quot;y&quot;:115,&quot;width&quot;:182.48122886539795,&quot;height&quot;:118.01250129926356},&quot;fillRule&quot;:&quot;evenodd&quot;,&quot;suitableAsStandaloneIcon&quot;:true}" fill-rule="evenodd"><g data-paper-data="{&quot;isPathIcon&quot;:true}"><path d="M231.45218,115l-20.61491,118.0125h-17.95392c-5.03898,0 -9.12396,-4.08498 -9.12396,-9.12396v-99.76458c0,-5.03898 4.08498,-9.12396 9.12396,-9.12396z" fill="#ef426f"></path><path d="M267.79603,119.15698l0.676,-4.15698h20.98391z" fill="#006298"></path><path d="M322.1498,233.0125l17.70093,-101.61557c0.615,-3.38699 0.346,-6.54297 -0.809,-9.46896c-1.067,-2.70399 -2.69399,-5.01298 -4.87898,-6.92797h22.9539c5.03898,0 9.12396,4.08498 9.12396,9.12396v99.76458c0,5.03898 -4.08498,9.12396 -9.12396,9.12396z" fill="#7a9a01"></path><path d="M284.97096,233.0125l15.38793,-87.98963l-38.56784,7.38997l-14.00794,80.59966z" fill="#ff9e1b"></path></g></g></svg>