<svg width="202" height="130" xmlns="http://www.w3.org/2000/svg" version="1.1" xml:space="preserve">
 <g>
  <title>Layer 1</title>
  <path d="m59.45218,8l-20.61491,118.0125l-17.95392,0c-5.03898,0 -9.12396,-4.08498 -9.12396,-9.12396l0,-99.76458c0,-5.03898 4.08498,-9.12396 9.12396,-9.12396l38.56883,0z" fill="#ab0000" id="svg_1"/>
  <path d="m95.79603,12.15698l0.676,-4.15698l20.98391,0l-21.65991,4.15698z" fill="#006298" id="svg_2"/>
  <path d="m150.1498,126.0125l17.70093,-101.61557c0.615,-3.38699 0.346,-6.54297 -0.809,-9.46896c-1.067,-2.70399 -2.69399,-5.01298 -4.87898,-6.92797l22.9539,0c5.03898,0 9.12396,4.08498 9.12396,9.12396l0,99.76458c0,5.03898 -4.08498,9.12396 -9.12396,9.12396l-34.96685,0z" fill="#006d00" id="svg_3"/>
  <path d="m112.97096,126.0125l15.38793,-87.98963l-38.56784,7.38997l-14.00794,80.59966l37.18785,0z" fill="#ff9e1b" id="svg_4"/>
 </g>

</svg>